<svg width="312" height="120" viewBox="0 0 312 120" fill="none" xmlns="http://www.w3.org/2000/svg">
<path d="M7.99968 96.1248H6.36258C6.25639 95.7318 6.11481 95.4461 5.95552 95.2675C5.6635 94.9282 5.22104 94.7585 4.6193 94.7585C3.93792 94.7585 3.41582 95.0621 3.07955 95.6783C2.80523 96.1605 2.67249 96.7855 2.67249 97.5356C2.67249 98.2768 2.80523 98.884 3.07955 99.3573C3.42467 99.9466 3.93792 100.241 4.6193 100.241C5.57501 100.241 6.15905 99.7412 6.36258 98.7501H8.00853C7.83154 99.6787 7.45103 100.393 6.86699 100.911C6.28294 101.42 5.52191 101.679 4.59275 101.679C3.40697 101.679 2.50436 101.277 1.86722 100.465C1.29202 99.7234 1 98.7411 1 97.5178C1 96.3033 1.29202 95.3211 1.88491 94.571C2.5309 93.7495 3.43352 93.3387 4.61045 93.3387C5.6812 93.3387 6.53072 93.6602 7.15901 94.2942C7.67226 94.7942 7.95543 95.4104 7.99968 96.1248Z" fill="#231F20"/>
<path d="M8.93768 97.491C8.93768 95.8837 9.43324 94.7228 10.4332 94.0174C11.088 93.553 11.8491 93.3209 12.7074 93.3209C13.5658 93.3209 14.3268 93.553 14.9817 94.0174C15.9816 94.7228 16.4772 95.8837 16.4772 97.491C16.4772 99.0983 15.9728 100.259 14.9817 100.965C14.3268 101.429 13.5658 101.661 12.7074 101.661C11.8491 101.661 11.088 101.429 10.4332 100.965C9.43324 100.259 8.93768 99.1073 8.93768 97.491ZM10.5748 97.491C10.5748 98.2679 10.7341 98.9019 11.0438 99.393C11.4243 99.9734 11.9818 100.268 12.7074 100.268C13.4331 100.268 13.9905 99.9734 14.3711 99.393C14.6808 98.9108 14.8401 98.2768 14.8401 97.491C14.8401 96.7141 14.6808 96.0801 14.3711 95.589C13.9905 95.0086 13.4331 94.7139 12.7074 94.7139C11.9818 94.7139 11.4243 95.0086 11.0438 95.589C10.7341 96.0801 10.5748 96.7141 10.5748 97.491Z" fill="#231F20"/>
<path d="M28.1404 101.134L27.2731 102.027L26.344 101.134C25.7422 101.483 25.0786 101.661 24.3352 101.661C23.4769 101.661 22.7158 101.429 22.061 100.965C21.061 100.259 20.5655 99.0983 20.5655 97.491C20.5655 95.8837 21.061 94.7228 22.061 94.0174C22.7158 93.553 23.4769 93.3209 24.3352 93.3209C25.1936 93.3209 25.9546 93.553 26.6095 94.0174C27.6094 94.7228 28.105 95.8837 28.105 97.491C28.105 98.6786 27.8306 99.6162 27.282 100.313L28.1404 101.134ZM24.4326 99.3037L25.2732 98.4107L26.1051 99.1965C26.344 98.7501 26.459 98.1786 26.459 97.4999C26.459 96.7231 26.2997 96.089 25.99 95.6069C25.6095 95.0264 25.052 94.7318 24.3264 94.7318C23.6007 94.7318 23.0433 95.0264 22.6627 95.6069C22.353 96.089 22.1937 96.7231 22.1937 97.5089C22.1937 98.2857 22.353 98.9197 22.6627 99.4109C23.0433 99.9913 23.6007 100.286 24.3264 100.286C24.6449 100.286 24.9458 100.215 25.2113 100.072L24.4326 99.3037Z" fill="#231F20"/>
<path d="M35.7418 93.5262V98.6786C35.7418 100.661 34.6622 101.661 32.5118 101.661C31.5561 101.661 30.8128 101.429 30.273 100.956C29.6978 100.456 29.4058 99.7323 29.4058 98.7769V93.5262H31.0783V98.6697C31.0783 99.134 31.1933 99.5091 31.4322 99.7948C31.68 100.107 32.034 100.259 32.4853 100.259C33.5472 100.259 34.0693 99.7591 34.0693 98.7501V93.5262H35.7418Z" fill="#231F20"/>
<path d="M39.0425 99.8216L38.5027 101.456H36.7682L39.5734 93.5352H41.4671L44.2369 101.456H42.4494L41.945 99.8216H39.0425ZM40.4849 95.3122L39.4938 98.4464H41.4848L40.5026 95.3122H40.4849Z" fill="#231F20"/>
<path d="M50.1128 93.5262H51.6437V101.447H50.0331L46.7943 95.7854L46.7766 95.7944V101.447H45.2457V93.5262H46.9713L50.1128 99.0447V93.5262Z" fill="#231F20"/>
<path d="M59.661 94.9282V101.456H58.0151V94.9282H55.6435V93.5262H62.0326V94.9282H59.661Z" fill="#231F20"/>
<path d="M63.0414 101.456V93.5352H67.0146C67.935 93.5352 68.6075 93.8209 69.0411 94.3924C69.342 94.7942 69.4924 95.2497 69.4924 95.7765C69.4924 96.2051 69.3862 96.5891 69.1827 96.9284C68.9615 97.2856 68.6606 97.5356 68.2712 97.6696C68.6429 97.8303 68.8907 98.0178 69.0146 98.2232C69.1827 98.509 69.2623 99.0001 69.2623 99.6787C69.2623 100.295 69.28 100.688 69.3066 100.849C69.342 101.054 69.4482 101.188 69.6163 101.259V101.465H67.8022C67.6872 101.063 67.6252 100.536 67.6252 99.8663C67.6252 99.268 67.5633 98.884 67.4394 98.7054C67.2801 98.4732 66.9173 98.3661 66.3421 98.3661H64.6431V101.465H63.0414V101.456ZM64.6519 97.0177H66.581C67.4306 97.0177 67.8465 96.6605 67.8465 95.9372C67.8465 95.2497 67.466 94.9014 66.6961 94.9014H64.6519V97.0177Z" fill="#231F20"/>
<path d="M77.2708 93.5262V98.6786C77.2708 100.661 76.1912 101.661 74.0409 101.661C73.0852 101.661 72.3418 101.429 71.802 100.956C71.2268 100.456 70.9348 99.7323 70.9348 98.7769V93.5262H72.6073V98.6697C72.6073 99.134 72.7223 99.5091 72.9613 99.7948C73.209 100.107 73.563 100.259 74.0143 100.259C75.0762 100.259 75.5983 99.7591 75.5983 98.7501V93.5262H77.2708Z" fill="#231F20"/>
<path d="M83.7041 93.5262H85.235V101.447H83.6245L80.3857 95.7854L80.368 95.7944V101.447H78.8371V93.5262H80.5627L83.7041 99.0447V93.5262Z" fill="#231F20"/>
<path d="M90.5445 98.5179V97.1784H93.8276V101.447H92.7303L92.5621 100.456C92.2524 100.822 91.9692 101.081 91.7214 101.241C91.279 101.518 90.7392 101.661 90.1109 101.661C88.9694 101.661 88.0668 101.25 87.4119 100.429C86.8102 99.6609 86.5005 98.6965 86.5005 97.5178C86.5005 96.2765 86.8279 95.2764 87.4827 94.5174C88.1729 93.7227 89.1287 93.3298 90.341 93.3298C91.4294 93.3298 92.2966 93.6423 92.9338 94.2585C93.4559 94.7585 93.7391 95.3389 93.7833 95.9997H92.1462C92.1462 95.7676 92.0046 95.5175 91.7214 95.2229C91.3675 94.8657 90.9427 94.696 90.4295 94.696C89.6596 94.696 89.0844 94.9907 88.6862 95.58C88.3411 96.089 88.1729 96.7409 88.1729 97.5446C88.1729 99.3662 88.934 100.268 90.456 100.268C90.8011 100.268 91.1197 100.179 91.4206 99.9913C91.8984 99.6966 92.217 99.2055 92.3586 98.5268H90.5445V98.5179Z" fill="#231F20"/>
<path d="M119.738 93.5262H121.269V101.447H119.658L116.419 95.7854L116.402 95.7944V101.447H114.871V93.5262H116.596L119.738 99.0447V93.5262Z" fill="#231F20"/>
<path d="M126.578 98.5179V97.1784H129.861V101.447H128.764L128.596 100.456C128.286 100.822 128.003 101.081 127.755 101.241C127.313 101.518 126.773 101.661 126.145 101.661C125.003 101.661 124.101 101.25 123.446 100.429C122.844 99.6609 122.534 98.6965 122.534 97.5178C122.534 96.2765 122.862 95.2764 123.516 94.5174C124.207 93.7227 125.162 93.3298 126.375 93.3298C127.463 93.3298 128.33 93.6423 128.968 94.2585C129.49 94.7585 129.773 95.3389 129.817 95.9997H128.171C128.171 95.7676 128.03 95.5175 127.746 95.2229C127.392 94.8657 126.968 94.696 126.454 94.696C125.685 94.696 125.109 94.9907 124.711 95.58C124.366 96.089 124.198 96.7409 124.198 97.5446C124.198 99.3662 124.959 100.268 126.481 100.268C126.826 100.268 127.145 100.179 127.445 99.9913C127.923 99.6966 128.242 99.2055 128.383 98.5268H126.578V98.5179Z" fill="#231F20"/>
<path d="M141.153 96.1247H139.516C139.41 95.7318 139.268 95.4461 139.109 95.2675C138.817 94.9282 138.374 94.7585 137.772 94.7585C137.091 94.7585 136.569 95.0621 136.233 95.6783C135.958 96.1605 135.826 96.7855 135.826 97.5356C135.826 98.2768 135.958 98.884 136.233 99.3573C136.578 99.9466 137.091 100.241 137.772 100.241C138.728 100.241 139.312 99.7412 139.516 98.75H141.153C140.976 99.6787 140.595 100.393 140.011 100.911C139.427 101.42 138.666 101.679 137.737 101.679C136.551 101.679 135.649 101.277 135.011 100.465C134.436 99.7234 134.144 98.7411 134.144 97.5177C134.144 96.3033 134.436 95.3211 135.029 94.571C135.675 93.7495 136.578 93.3387 137.755 93.3387C138.825 93.3387 139.675 93.6602 140.303 94.2942C140.825 94.7942 141.1 95.4104 141.153 96.1247Z" fill="#231F20"/>
<path d="M148.728 93.5262V98.6786C148.728 100.652 147.648 101.643 145.498 101.661C144.551 101.67 143.799 101.429 143.259 100.956C142.684 100.456 142.392 99.7323 142.392 98.7768V93.5262H144.064V98.6697C144.064 99.1519 144.179 99.5269 144.4 99.8037C144.639 100.107 144.993 100.259 145.462 100.259C146.524 100.259 147.046 99.7591 147.046 98.75V93.5262H148.728ZM145.763 93.2851H145.179C145.179 93.044 145.206 92.8654 145.259 92.7493C145.312 92.6333 145.427 92.5172 145.622 92.3922C145.807 92.2671 145.905 92.1243 145.905 91.9635C145.905 91.6689 145.763 91.526 145.48 91.526C145.215 91.526 145.064 91.6957 145.011 92.035H144.4C144.4 91.7224 144.498 91.4724 144.692 91.2849C144.887 91.0974 145.135 91.0081 145.453 91.0081C145.772 91.0081 146.038 91.0795 146.232 91.2313C146.462 91.401 146.568 91.6421 146.568 91.9457C146.568 92.2314 146.391 92.5082 146.046 92.7583C145.869 92.8833 145.772 93.0619 145.763 93.2851Z" fill="#231F20"/>
<path d="M152.028 99.8216L151.489 101.456H149.754L152.559 93.5352H154.453L157.223 101.456H155.435L154.931 99.8216H152.028ZM153.471 95.3122L152.48 98.4464H154.471L153.488 95.3122H153.471Z" fill="#231F20"/>
<path d="M161.391 97.9643H160.506V96.598H161.391V93.5262H164.86C165.948 93.5262 166.762 93.8924 167.311 94.6335C167.798 95.2854 168.045 96.1694 168.054 97.3035C168.063 98.3572 167.842 99.259 167.399 100.009C166.833 100.974 165.966 101.456 164.798 101.456H161.391V97.9643ZM162.992 94.9014V96.598H164.807V97.9643H162.992V100.081H164.594C165.231 100.081 165.709 99.7859 166.019 99.1876C166.258 98.7233 166.382 98.1339 166.382 97.4195C166.382 95.7319 165.78 94.8925 164.576 94.8925H162.992V94.9014Z" fill="#231F20"/>
<path d="M170.966 99.8216L170.426 101.456H168.691L171.497 93.5352H173.39L176.16 101.456H174.372L173.868 99.8216H170.966ZM172.7 93.0619H172.116C172.116 92.8208 172.143 92.6422 172.196 92.5261C172.249 92.41 172.364 92.294 172.558 92.1689C172.744 92.0439 172.842 91.9011 172.842 91.7403C172.842 91.4456 172.7 91.3028 172.417 91.3028C172.151 91.3028 172.001 91.4724 171.948 91.8118H171.337C171.337 91.4992 171.435 91.2492 171.629 91.0617C171.824 90.8742 172.081 90.7849 172.39 90.7849C172.709 90.7849 172.974 90.8563 173.169 91.0081C173.399 91.1778 173.505 91.4189 173.505 91.7225C173.505 92.0082 173.328 92.285 172.983 92.5351C172.806 92.6601 172.718 92.8387 172.7 93.0619ZM171.417 98.4554H173.408L172.435 95.3122L171.417 98.4554Z" fill="#231F20"/>
<path d="M182.036 99.0447V93.5262H183.567V101.447H181.956L178.717 95.7854L178.7 95.7944V101.447H177.169V93.5262H178.894L182.036 99.0447Z" fill="#231F20"/>
<path d="M188.876 98.5179V97.1784H192.159V101.447H191.062L190.894 100.456C190.584 100.822 190.301 101.081 190.053 101.241C189.611 101.518 189.071 101.661 188.443 101.661C187.301 101.661 186.399 101.25 185.744 100.429C185.142 99.6609 184.832 98.6965 184.832 97.5178C184.832 96.2765 185.16 95.2764 185.814 94.5174C186.505 93.7227 187.46 93.3298 188.673 93.3298C189.761 93.3298 190.62 93.6423 191.266 94.2585C191.788 94.7585 192.071 95.3389 192.115 95.9997H190.478C190.478 95.7676 190.336 95.5175 190.053 95.2229C189.699 94.8657 189.274 94.696 188.761 94.696C187.991 94.696 187.416 94.9907 187.018 95.58C186.673 96.089 186.505 96.7409 186.505 97.5446C186.505 99.3662 187.266 100.268 188.788 100.268C189.133 100.268 189.451 100.179 189.752 99.9913C190.23 99.6966 190.549 99.2055 190.69 98.5268H188.876V98.5179Z" fill="#231F20"/>
<path d="M203.451 96.1247H201.805C201.699 95.7318 201.557 95.4461 201.398 95.2675C201.106 94.9282 200.663 94.7585 200.062 94.7585C199.38 94.7585 198.858 95.0621 198.522 95.6783C198.256 96.1605 198.115 96.7855 198.115 97.5356C198.115 98.2768 198.248 98.884 198.522 99.3573C198.867 99.9466 199.38 100.241 200.062 100.241C201.017 100.241 201.601 99.7412 201.805 98.75H203.451C203.274 99.6787 202.893 100.393 202.309 100.911C201.725 101.42 200.964 101.679 200.035 101.679C198.849 101.679 197.947 101.277 197.31 100.465C196.734 99.7234 196.442 98.7411 196.442 97.5177C196.442 96.3033 196.734 95.3211 197.327 94.571C197.964 93.7495 198.876 93.3387 200.053 93.3387C201.124 93.3387 201.973 93.6602 202.601 94.2942C203.115 94.7942 203.398 95.4104 203.451 96.1247Z" fill="#231F20"/>
<path d="M204.38 97.491C204.38 95.455 205.159 94.1424 206.707 93.5709C207.15 93.4102 207.628 93.3209 208.15 93.3209C208.743 93.3119 209.309 93.437 209.849 93.687C210.389 93.937 210.831 94.2942 211.167 94.7585C211.672 95.4551 211.919 96.3659 211.919 97.4999C211.919 99.5359 211.141 100.849 209.592 101.42C209.158 101.581 208.672 101.67 208.15 101.67C207.548 101.679 206.99 101.563 206.468 101.313C205.911 101.063 205.468 100.706 205.132 100.232C204.628 99.5269 204.38 98.6161 204.38 97.491ZM206.017 97.491C206.008 98.2679 206.167 98.9019 206.486 99.393C206.858 99.9645 207.415 100.259 208.15 100.268C208.875 100.277 209.433 99.9913 209.804 99.4109C210.114 98.9197 210.282 98.2857 210.282 97.4999C210.291 96.7231 210.132 96.089 209.813 95.5979C209.442 95.0264 208.884 94.7318 208.15 94.7228C207.424 94.7139 206.867 94.9996 206.495 95.5801C206.185 96.0712 206.026 96.7141 206.017 97.491ZM208.601 91.7493L209.477 92.8744H208.619L208.141 92.2583L207.654 92.8744H206.787L207.681 91.7493H208.601ZM208.725 102.322V103.385H207.583V102.322H208.725Z" fill="#231F20"/>
<path d="M218.07 99.0447V93.5262H219.6V101.447H217.99L214.751 95.7854L214.733 95.7944V101.447H213.203V93.5262H214.928L218.07 99.0447Z" fill="#231F20"/>
<path d="M224.91 98.5179V97.1784H228.193V101.447H227.096L226.928 100.456C226.618 100.822 226.335 101.081 226.087 101.241C225.644 101.518 225.105 101.661 224.476 101.661C223.335 101.661 222.432 101.25 221.777 100.429C221.176 99.6609 220.866 98.6965 220.866 97.5178C220.866 96.2765 221.193 95.2764 221.848 94.5174C222.538 93.7227 223.494 93.3298 224.706 93.3298C225.795 93.3298 226.653 93.6423 227.299 94.2585C227.821 94.7585 228.105 95.3389 228.149 95.9997H226.512C226.512 95.7676 226.37 95.5175 226.087 95.2229C225.733 94.8657 225.308 94.696 224.795 94.696C224.025 94.696 223.45 94.9907 223.052 95.58C222.707 96.089 222.538 96.7409 222.538 97.5446C222.538 99.3662 223.299 100.268 224.821 100.268C225.167 100.268 225.485 100.179 225.786 99.9913C226.264 99.6966 226.582 99.2055 226.724 98.5268H224.91V98.5179Z" fill="#231F20"/>
<path d="M232.423 99.018H233.998C234.016 99.8752 234.573 100.295 235.662 100.295C236.759 100.295 237.299 99.9556 237.299 99.268C237.299 98.9912 237.166 98.7679 236.901 98.6161C236.732 98.5179 236.387 98.4107 235.874 98.2857L235.033 98.0893C234.184 97.8928 233.617 97.6874 233.317 97.4731C232.795 97.107 232.538 96.5355 232.538 95.7587C232.538 95.1514 232.724 94.6246 233.095 94.2049C233.617 93.6156 234.432 93.3209 235.555 93.3209C236.626 93.3209 237.44 93.6245 237.989 94.2406C238.405 94.705 238.617 95.2497 238.626 95.8837H237.051C236.954 95.0889 236.423 94.696 235.44 94.696C235.078 94.696 234.777 94.7585 234.529 94.8925C234.219 95.0532 234.069 95.3032 234.069 95.6426C234.069 96.0533 234.343 96.3301 234.901 96.473L236.812 96.9463C237.476 97.107 237.962 97.3303 238.281 97.6071C238.679 97.9643 238.874 98.4465 238.874 99.0715C238.874 100.09 238.44 100.813 237.582 101.259C237.051 101.527 236.449 101.67 235.777 101.67C234.812 101.67 234.042 101.483 233.458 101.099C232.777 100.634 232.423 99.9466 232.423 99.018Z" fill="#231F20"/>
<path d="M241.821 99.8216L241.281 101.456H239.546L242.352 93.5352H244.245L247.015 101.456H245.228L244.723 99.8216H241.821ZM243.555 93.0619H242.971C242.971 92.8208 242.998 92.6422 243.051 92.5261C243.104 92.41 243.219 92.294 243.413 92.1689C243.599 92.0439 243.697 91.9011 243.697 91.7403C243.697 91.4456 243.555 91.3028 243.272 91.3028C243.006 91.3028 242.856 91.4724 242.803 91.8118H242.192C242.192 91.4992 242.29 91.2492 242.484 91.0617C242.679 90.8742 242.936 90.7849 243.245 90.7849C243.564 90.7849 243.829 90.8563 244.024 91.0081C244.254 91.1778 244.36 91.4189 244.36 91.7225C244.36 92.0082 244.183 92.285 243.838 92.5351C243.661 92.6601 243.573 92.8387 243.555 93.0619ZM242.272 98.4554H244.263L243.29 95.3122L242.272 98.4554Z" fill="#231F20"/>
<path d="M252.891 99.0447V93.5262H254.422V101.447H252.811L249.573 95.7854L249.555 95.7944V101.447H248.024V93.5262H249.75L252.891 99.0447Z" fill="#231F20"/>
<path d="M261.953 99.5359L263.66 93.5352H265.368L262.696 101.456H261.13L258.484 93.5352H260.245L261.926 99.5359H261.953Z" fill="#231F20"/>
<path d="M267.943 93.5262V101.447H266.297V93.5262H267.943Z" fill="#231F20"/>
<path d="M275.288 93.5263V94.9282H271.12V96.598H274.952V98H271.12V100.054H275.474V101.456H269.51V93.5352H275.288V93.5263ZM272.89 91.7493L273.74 92.8744H272.89L272.412 92.2404L271.908 92.8744H271.041L271.926 91.7493H272.89ZM272.979 102.108V103.17H271.837V102.108H272.979Z" fill="#231F20"/>
<path d="M280.182 94.9282V101.456H278.536V94.9282H276.164V93.5262H282.553V94.9282H280.182Z" fill="#231F20"/>
<path d="M291.429 99.0447V93.5262H292.96V101.447H291.349L288.111 95.7854L288.093 95.7944V101.447H286.562V93.5262H288.288L291.429 99.0447Z" fill="#231F20"/>
<path d="M296.234 99.8216L295.694 101.456H293.96L296.765 93.5352H298.659L301.429 101.456H299.641L299.137 99.8216H296.234ZM297.676 95.3122L296.685 98.4464H298.676L297.694 95.3122H297.676Z" fill="#231F20"/>
<path d="M310.039 93.5262V101.447H308.508V94.821L307.021 101.447H305.411L303.951 94.821V101.447H302.42V93.5262H304.8L306.242 99.777H306.269L307.694 93.5262H310.039Z" fill="#231F20"/>
<path d="M104.756 93.5262V98.6786C104.756 100.661 103.677 101.661 101.526 101.661C100.571 101.661 99.8273 101.429 99.2875 100.956C98.7123 100.456 98.4203 99.7323 98.4203 98.7769V93.5262H100.093V98.6697C100.093 99.134 100.208 99.5091 100.447 99.7948C100.694 100.107 101.048 100.259 101.5 100.259C102.562 100.259 103.084 99.7591 103.084 98.7501V93.5262H104.756Z" fill="#231F20"/>
<path d="M106.048 97.491C106.048 95.8837 106.544 94.7228 107.544 94.0174C108.199 93.553 108.96 93.3209 109.818 93.3209C110.676 93.3209 111.437 93.553 112.092 94.0174C113.092 94.7228 113.588 95.8837 113.588 97.491C113.588 99.0983 113.083 100.259 112.092 100.965C111.437 101.429 110.676 101.661 109.818 101.661C108.96 101.661 108.199 101.429 107.544 100.965C106.553 100.259 106.048 99.1073 106.048 97.491ZM107.694 97.491C107.694 98.2679 107.853 98.9019 108.163 99.393C108.544 99.9734 109.101 100.268 109.827 100.268C110.552 100.268 111.11 99.9734 111.49 99.393C111.8 98.9108 111.959 98.2768 111.959 97.491C111.959 96.7141 111.8 96.0801 111.49 95.589C111.11 95.0086 110.552 94.7139 109.827 94.7139C109.101 94.7139 108.544 95.0086 108.163 95.589C107.845 96.0801 107.694 96.7141 107.694 97.491Z" fill="#231F20"/>
<path d="M105.331 92.035V93.0619C105.331 93.9013 104.924 94.4103 104.11 94.6067V94.1692C104.314 94.0977 104.455 94.0174 104.553 93.9191C104.703 93.7673 104.783 93.5352 104.8 93.2316H104.119V92.035H105.331Z" fill="#231F20"/>
<path d="M112.535 92.035V93.0619C112.535 93.9013 112.128 94.4103 111.313 94.6067V94.1692C111.517 94.0977 111.659 94.0174 111.756 93.9191C111.906 93.7673 111.986 93.5352 112.004 93.2316H111.322V92.035H112.535Z" fill="#231F20"/>
<path d="M15.4241 92.035V93.0619C15.4241 93.9013 15.0171 94.4103 14.2029 94.6067V94.1692C14.4065 94.0977 14.5481 94.0174 14.6454 93.9191C14.7958 93.7673 14.8755 93.5352 14.8932 93.2316H14.2118V92.035H15.4241Z" fill="#231F20"/>
<path d="M5.01751 107.948V114.475H3.37157V107.948H1V106.546H7.38908V107.948H5.01751Z" fill="#231F20"/>
<path d="M10.1412 106.546V114.466H8.50409V106.546H10.1412Z" fill="#231F20"/>
<path d="M17.4063 106.546V107.948H13.2384V109.617H17.07V111.019H13.2384V113.073H17.5921V114.475H11.6278V106.555H17.4063V106.546ZM14.9728 104.76L15.8489 105.885H14.9905L14.5038 105.26L14.0171 105.885H13.1587L14.0348 104.76H14.9728ZM17.6895 104.126L16.5656 105.251H15.7869L16.5125 104.126H17.6895Z" fill="#231F20"/>
<path d="M168.736 104.313L167.612 105.438H166.833L167.559 104.313H168.736Z" fill="#231F20"/>
<path d="M23.645 106.546H25.1759V114.466H23.5653L20.3354 108.805L20.3177 108.814V114.466H18.7868V106.546H20.5124L23.6538 112.064V106.546H23.645Z" fill="#231F20"/>
<path d="M30.2906 111.537V110.198H33.5737V114.466H32.4764L32.3082 113.475C31.9985 113.841 31.7154 114.1 31.4676 114.261C31.0251 114.538 30.4853 114.68 29.857 114.68C28.7155 114.68 27.8129 114.27 27.158 113.448C26.5563 112.68 26.2466 111.716 26.2466 110.537C26.2466 109.296 26.574 108.296 27.2288 107.537C27.9191 106.742 28.8748 106.349 30.0871 106.349C31.1756 106.349 32.0339 106.662 32.6799 107.278C33.1932 107.778 33.4852 108.358 33.5294 109.019H31.8923C31.8923 108.787 31.7508 108.537 31.4676 108.242C31.1136 107.885 30.6889 107.715 30.1756 107.715C29.4057 107.715 28.8305 108.01 28.4323 108.599C28.0872 109.108 27.9191 109.76 27.9191 110.564C27.9191 112.386 28.6801 113.287 30.2022 113.287C30.5473 113.287 30.8658 113.198 31.1667 113.011C31.6446 112.716 31.9631 112.225 32.1047 111.546H30.2906V111.537Z" fill="#231F20"/>
<path d="M42.6087 106.546H44.1396V114.466H42.5291L39.2991 108.805L39.2814 108.814V114.466H37.7505V106.546H39.4761L42.6175 112.064V106.546H42.6087Z" fill="#231F20"/>
<path d="M45.2015 110.51C45.2015 108.474 45.9802 107.162 47.5288 106.59C47.9624 106.43 48.4491 106.34 48.9712 106.34C49.5641 106.331 50.1305 106.456 50.6703 106.706C51.21 106.956 51.6525 107.314 51.9888 107.778C52.4932 108.474 52.741 109.385 52.741 110.519C52.741 112.555 51.9622 113.868 50.4136 114.439C49.98 114.6 49.4933 114.689 48.9712 114.689C48.3695 114.698 47.812 114.582 47.2899 114.332C46.7324 114.082 46.2899 113.725 45.9537 113.252C45.4493 112.546 45.2015 111.635 45.2015 110.51ZM46.8386 110.51C46.8297 111.287 46.989 111.921 47.3076 112.412C47.6792 112.984 48.2367 113.279 48.9712 113.287C49.6968 113.296 50.2543 113.011 50.626 112.43C50.9357 111.939 51.1039 111.305 51.1039 110.519C51.1127 109.742 50.9534 109.108 50.6349 108.617C50.2632 108.046 49.7057 107.751 48.9712 107.742C48.2456 107.733 47.6881 108.019 47.3164 108.599C47.0067 109.091 46.8474 109.725 46.8386 110.51ZM50.4667 104.76L49.3429 105.885H48.5642L49.2898 104.76H50.4667Z" fill="#231F20"/>
<path d="M55.4045 106.546V114.466H53.7675V106.546H55.4045Z" fill="#231F20"/>
<path d="M66.2979 109.135H64.6608C64.5546 108.742 64.413 108.457 64.2537 108.278C63.9617 107.939 63.5192 107.769 62.9175 107.769C62.2361 107.769 61.714 108.073 61.3777 108.689C61.1034 109.171 60.9707 109.796 60.9707 110.546C60.9707 111.287 61.1034 111.894 61.3777 112.368C61.7229 112.957 62.2361 113.252 62.9175 113.252C63.8732 113.252 64.4484 112.752 64.6608 111.76H66.2979C66.1209 112.689 65.7404 113.404 65.1563 113.921C64.5723 114.43 63.8112 114.689 62.8821 114.689C61.7052 114.689 60.7937 114.288 60.1565 113.475C59.5814 112.734 59.2893 111.752 59.2893 110.528C59.2893 109.314 59.5814 108.332 60.1743 107.581C60.8202 106.76 61.7228 106.349 62.8998 106.349C63.9705 106.349 64.8201 106.671 65.4483 107.305C65.9704 107.814 66.2448 108.421 66.2979 109.135Z" fill="#231F20"/>
<path d="M73.6692 106.546V111.698C73.6692 113.671 72.5896 114.663 70.4392 114.68C69.4924 114.689 68.7402 114.448 68.2004 113.975C67.6252 113.475 67.3332 112.752 67.3332 111.796V106.546H69.0057V111.689C69.0057 112.171 69.1207 112.546 69.342 112.823C69.5809 113.127 69.9348 113.279 70.4038 113.279C71.4569 113.279 71.9878 112.778 71.9878 111.769V106.546H73.6692ZM70.7047 106.305H70.1295C70.1295 106.063 70.1561 105.885 70.2092 105.769C70.2623 105.653 70.3773 105.537 70.572 105.412C70.7578 105.287 70.8552 105.144 70.8552 104.983C70.8552 104.688 70.7136 104.545 70.4304 104.545C70.1649 104.545 70.0145 104.715 69.9614 105.054H69.3508C69.3508 104.742 69.4481 104.492 69.6428 104.304C69.8375 104.117 70.0853 104.027 70.4038 104.027C70.7224 104.027 70.9879 104.099 71.1826 104.251C71.4126 104.42 71.5188 104.661 71.5188 104.965C71.5188 105.251 71.3419 105.528 70.9967 105.778C70.8109 105.894 70.7224 106.072 70.7047 106.305Z" fill="#231F20"/>
<path d="M76.7753 112.832L76.2355 114.466H74.501L77.2974 106.546H79.1911L81.9609 114.466H80.1733L79.6689 112.832H76.7753ZM78.2177 108.332L77.2266 111.466H79.2176L78.2354 108.332H78.2177Z" fill="#231F20"/>
<path d="M85.7394 110.984H84.8545V109.617H85.7394V106.546H89.2083C90.2967 106.546 91.1109 106.912 91.6595 107.653C92.1462 108.305 92.394 109.189 92.4028 110.323C92.4117 111.377 92.1905 112.278 91.748 113.028C91.1817 113.993 90.3144 114.475 89.1464 114.475H85.7483V110.984H85.7394ZM87.3411 107.912V109.608H89.1552V110.975H87.3411V113.091H88.9428C89.58 113.091 90.0578 112.796 90.3675 112.198C90.6065 111.734 90.7304 111.144 90.7304 110.43C90.7304 108.742 90.1286 107.903 88.9251 107.903H87.3411V107.912Z" fill="#231F20"/>
<path d="M95.1195 112.832L94.5797 114.466H92.8453L95.6416 106.546H97.5354L100.305 114.466H98.5176L98.0132 112.832H95.1195ZM96.8451 106.081H96.2699C96.2699 105.84 96.2965 105.662 96.3496 105.545C96.4027 105.429 96.5177 105.313 96.7124 105.188C96.8982 105.063 96.9956 104.92 96.9956 104.76C96.9956 104.465 96.854 104.322 96.5708 104.322C96.3053 104.322 96.1549 104.492 96.1018 104.831H95.4912C95.4912 104.519 95.5885 104.269 95.7832 104.081C95.9779 103.893 96.2345 103.804 96.5443 103.804C96.8628 103.804 97.1194 103.876 97.323 104.027C97.5531 104.197 97.6592 104.438 97.6592 104.742C97.6592 105.028 97.4823 105.304 97.1371 105.554C96.9513 105.679 96.8628 105.849 96.8451 106.081ZM95.5708 111.466H97.5619L96.5885 108.323L95.5708 111.466Z" fill="#231F20"/>
<path d="M105.986 106.546H107.517V114.466H105.907L102.677 108.805L102.659 108.814V114.466H101.128V106.546H102.854L105.995 112.064V106.546H105.986Z" fill="#231F20"/>
<path d="M112.623 111.537V110.198H115.906V114.466H114.809L114.641 113.475C114.331 113.841 114.048 114.1 113.8 114.261C113.358 114.538 112.818 114.68 112.19 114.68C111.048 114.68 110.145 114.27 109.491 113.448C108.889 112.68 108.579 111.716 108.579 110.537C108.579 109.296 108.907 108.296 109.561 107.537C110.252 106.742 111.207 106.349 112.42 106.349C113.508 106.349 114.366 106.662 115.012 107.278C115.526 107.778 115.818 108.358 115.862 109.019H114.225C114.225 108.787 114.083 108.537 113.8 108.242C113.446 107.885 113.021 107.715 112.508 107.715C111.738 107.715 111.163 108.01 110.765 108.599C110.42 109.108 110.252 109.76 110.252 110.564C110.252 112.386 111.013 113.287 112.535 113.287C112.88 113.287 113.198 113.198 113.499 113.011C113.977 112.716 114.296 112.225 114.437 111.546H112.623V111.537Z" fill="#231F20"/>
<path d="M118.782 112.859V114.252C118.782 115.377 118.233 116.073 117.145 116.323V115.743C117.411 115.645 117.614 115.538 117.738 115.404C117.933 115.198 118.048 114.886 118.065 114.475H117.145V112.868H118.782V112.859Z" fill="#231F20"/>
<path d="M162.692 106.546V111.698C162.692 113.68 161.612 114.68 159.462 114.68C158.506 114.68 157.763 114.448 157.223 113.975C156.648 113.475 156.356 112.752 156.356 111.796V106.546H158.028V111.689C158.028 112.153 158.143 112.528 158.382 112.814C158.63 113.127 158.984 113.279 159.435 113.279C160.488 113.279 161.019 112.778 161.019 111.769V106.546H162.692Z" fill="#231F20"/>
<path d="M163.815 110.51C163.815 108.903 164.311 107.742 165.311 107.037C165.966 106.572 166.727 106.34 167.585 106.34C168.444 106.34 169.205 106.572 169.859 107.037C170.859 107.742 171.355 108.903 171.355 110.51C171.355 112.118 170.859 113.279 169.859 113.984C169.205 114.448 168.444 114.68 167.585 114.68C166.727 114.68 165.966 114.448 165.311 113.984C164.311 113.279 163.815 112.118 163.815 110.51ZM165.453 110.51C165.453 111.287 165.612 111.921 165.922 112.412C166.302 112.993 166.851 113.287 167.585 113.287C168.311 113.287 168.868 112.993 169.249 112.412C169.559 111.93 169.718 111.296 169.718 110.51C169.718 109.733 169.559 109.099 169.249 108.608C168.868 108.028 168.311 107.733 167.585 107.733C166.86 107.733 166.302 108.028 165.922 108.608C165.612 109.091 165.453 109.725 165.453 110.51Z" fill="#231F20"/>
<path d="M163.267 105.045V106.081C163.267 106.921 162.86 107.43 162.046 107.626V107.189C162.249 107.117 162.391 107.037 162.488 106.939C162.639 106.787 162.718 106.555 162.736 106.251H162.054V105.054H163.267V105.045Z" fill="#231F20"/>
<path d="M170.302 105.045V106.081C170.302 106.921 169.895 107.43 169.081 107.626V107.189C169.284 107.117 169.426 107.037 169.523 106.939C169.674 106.787 169.753 106.555 169.771 106.251H169.09V105.054H170.302V105.045Z" fill="#231F20"/>
<path d="M127.384 106.546H128.914V114.466H127.304L124.074 108.805L124.056 108.814V114.466H122.525V106.546H124.251L127.392 112.064V106.546H127.384Z" fill="#231F20"/>
<path d="M134.976 110.912H131.914V114.466H130.277V106.546H131.914V109.546H134.976V106.546H136.613V114.466H134.976V110.912Z" fill="#231F20"/>
<path d="M139.719 112.832L139.179 114.466H137.445L140.241 106.546H142.135L144.905 114.466H143.117L142.613 112.832H139.719ZM140.781 105.885L139.657 104.76H140.834L141.56 105.885H140.781ZM140.162 111.466H142.153L141.179 108.323L140.162 111.466Z" fill="#231F20"/>
<path d="M153.462 106.546H154.993V114.466H153.382L150.152 108.805L150.135 108.814V114.466H148.604V106.546H150.329L153.471 112.064V106.546H153.462Z" fill="#231F20"/>
<path d="M179.133 109.135H177.496C177.39 108.742 177.248 108.457 177.089 108.278C176.797 107.939 176.355 107.769 175.753 107.769C175.072 107.769 174.549 108.073 174.213 108.689C173.948 109.171 173.806 109.796 173.806 110.546C173.806 111.287 173.939 111.894 174.213 112.368C174.558 112.957 175.072 113.252 175.753 113.252C176.709 113.252 177.284 112.752 177.496 111.76H179.133C178.956 112.689 178.576 113.404 177.992 113.921C177.408 114.43 176.647 114.689 175.726 114.689C174.549 114.689 173.638 114.288 173.001 113.475C172.426 112.734 172.134 111.752 172.134 110.528C172.134 109.314 172.426 108.332 173.019 107.581C173.656 106.76 174.567 106.349 175.744 106.349C176.815 106.349 177.664 106.671 178.293 107.305C178.797 107.814 179.08 108.421 179.133 109.135Z" fill="#231F20"/>
<path d="M185.929 112.546L187.637 106.546H189.345L186.673 114.466H185.107L182.461 106.546H184.222L185.903 112.546H185.929Z" fill="#231F20"/>
<path d="M191.885 112.832L191.345 114.466H189.611L192.407 106.546H194.301L197.071 114.466H195.283L194.779 112.832H191.885ZM192.947 105.885L191.823 104.76H193L193.726 105.885H192.947ZM192.327 111.466H194.318L193.345 108.323L192.327 111.466Z" fill="#231F20"/>
<path d="M205.406 112.064V106.546H206.937V114.466H205.327L202.097 108.805L202.079 108.814V114.466H200.548V106.546H202.274L205.406 112.064Z" fill="#231F20"/>
<path d="M212.999 110.912H209.937V114.466H208.3V106.546H209.937V109.546H212.999V106.546H214.636V114.466H212.999V110.912Z" fill="#231F20"/>
<path d="M217.742 112.832L217.202 114.466H215.468L218.264 106.546H220.158L222.928 114.466H221.14L220.636 112.832H217.742ZM219.662 104.76L220.539 105.885H219.68L219.193 105.26L218.707 105.885H217.848L218.724 104.76H219.662ZM218.193 111.466H220.185L219.211 108.323L218.193 111.466Z" fill="#231F20"/>
<path d="M228.609 112.064V106.546H230.14V114.466H228.529L225.299 108.805L225.282 108.814V114.466H223.751V106.546H225.476L228.609 112.064Z" fill="#231F20"/>
<path d="M234.423 114.466V106.546H237.892C239.069 106.546 239.936 106.983 240.484 107.867C240.883 108.519 241.086 109.332 241.086 110.314C241.086 111.385 240.865 112.296 240.431 113.028C239.865 113.984 238.998 114.466 237.83 114.466H234.423ZM236.033 107.912V113.1H237.626C238.263 113.1 238.741 112.805 239.051 112.207C239.29 111.743 239.414 111.153 239.414 110.439C239.414 108.751 238.812 107.912 237.609 107.912H236.033Z" fill="#231F20"/>
<path d="M243.821 112.832L243.281 114.466H241.546L244.343 106.546H246.236L249.006 114.466H247.219L246.714 112.832H243.821ZM245.732 104.76L246.608 105.885H245.75L245.263 105.26L244.776 105.885H243.918L244.794 104.76H245.732ZM244.272 111.466H246.263L245.29 108.323L244.272 111.466Z" fill="#231F20"/>
<path d="M254.687 112.064V106.546H256.218V114.466H254.608L251.378 108.805L251.36 108.814V114.466H249.829V106.546H251.555L254.687 112.064Z" fill="#231F20"/>
<path d="M263.342 112.546L265.05 106.546H266.758L264.085 114.466H262.519L259.873 106.546H261.634L263.315 112.546H263.342Z" fill="#231F20"/>
<path d="M269.147 106.546V114.466H267.51V106.546H269.147Z" fill="#231F20"/>
<path d="M276.288 106.546V107.948H272.12V109.617H275.952V111.019H272.12V113.073H276.474V114.475H270.51V106.555H276.288V106.546ZM273.89 104.76L274.74 105.885H273.89L273.412 105.251L272.917 105.885H272.049L272.934 104.76H273.89ZM273.979 115.127V116.19H272.837V115.127H273.979Z" fill="#231F20"/>
<path d="M280.978 107.948V114.475H279.341V107.948H276.969V106.546H283.359V107.948H280.978Z" fill="#231F20"/>
<path d="M291.827 112.064V106.546H293.358V114.466H291.748L288.518 108.805L288.5 108.814V114.466H286.969V106.546H288.695L291.827 112.064Z" fill="#231F20"/>
<path d="M296.429 112.832L295.889 114.466H294.155L296.951 106.546H298.845L301.614 114.466H299.827L299.322 112.832H296.429ZM297.871 108.332L296.88 111.466H298.871L297.889 108.332H297.871Z" fill="#231F20"/>
<path d="M310.039 106.546V114.466H308.508V107.84L307.021 114.466H305.411L303.959 107.84V114.466H302.428V106.546H304.809L306.251 112.796H306.278L307.703 106.546H310.039Z" fill="#231F20"/>
<path d="M310.048 76.1939H1.46014V86.9005H310.048V76.1939Z" fill="#E21F26"/>
<path d="M212.114 3.24806C210.787 3.04268 209.583 2.87302 206.787 2.87302C205.61 2.87302 183.983 2.87302 183.735 2.87302V36.109V69.3449C183.983 69.3449 205.61 69.3449 206.787 69.3449C209.592 69.3449 210.787 69.1752 212.114 68.9699C218.406 67.8358 223.503 63.6746 223.503 53.611C223.503 53.0127 223.503 44.5564 223.503 36.109C223.503 27.6616 223.503 19.2052 223.503 18.607C223.503 8.54331 218.406 4.38212 212.114 3.24806ZM207.495 36.109C207.495 45.9583 207.495 55.6558 207.495 56.4684C207.495 61.8887 203.115 62.1923 201.283 62.1923C201.283 61.2279 201.283 48.5122 201.283 36.109C201.283 23.7147 201.283 10.9989 201.283 10.0256C203.115 10.0256 207.495 10.3292 207.495 15.7495C207.495 16.5621 207.495 26.2596 207.495 36.109Z" fill="#E21F26"/>
<path d="M40.4937 2.87302C38.3611 2.87302 36.2196 2.87302 34.0869 2.87302V39.4397C29.0075 27.4115 23.1229 14.9012 18.0434 2.87302C17.9196 2.87302 1.70792 2.87302 1.46014 2.87302V69.336H7.92887V30.1797C8.1324 30.5905 25.0431 69.3449 25.0431 69.3449H40.5557V2.87302H40.4937Z" fill="#E21F26"/>
<path d="M73.1825 12.1062C69.4393 12.767 65.5191 14.6779 62.5016 17.33C62.5016 12.3384 62.5016 7.5789 62.5016 2.88194C62.2538 2.88194 47.1483 2.88194 47.0244 2.88194V69.3538H62.5016C62.5016 69.3538 62.4927 31.3941 62.5016 24.4469C62.5016 22.4467 64.5015 21.0894 66.3156 21.1608C68.3951 21.2501 68.7225 22.8485 68.7225 24.2237C68.7225 25.1881 68.7225 69.3538 68.7225 69.3538H84.1997C84.1997 69.3538 84.1997 38.5825 84.1997 27.1169C84.1997 24.0004 84.1997 21.5091 84.1997 20.0357C84.2085 14.0171 79.076 11.0614 73.1825 12.1062Z" fill="#E21F26"/>
<path d="M160.143 12.3294C156.453 13.017 152.595 14.8476 149.577 17.5711V11.7669H134.1V69.3449H149.577V24.9648C149.577 24.9202 149.577 24.8666 149.577 24.8219C149.577 22.6878 151.559 21.3394 153.409 21.3394C155.046 21.3394 155.807 22.6967 155.798 23.9379V24.2951C155.798 24.4022 155.798 24.5005 155.798 24.5987C155.798 24.6969 155.798 24.7951 155.798 24.8934V69.3449H171.275V20.7322C171.284 14.4279 166.284 11.1954 160.143 12.3294Z" fill="#E21F26"/>
<path d="M126.888 20.9733C125.401 16.9193 121.782 14.1154 117.101 13.3028C113.597 12.6956 108.455 12.9277 105.703 13.0349C102.517 13.151 99.5441 13.9279 97.0398 15.4459C93.1019 17.839 91.1286 21.3573 91.456 26.0364C91.6772 29.1171 93.6594 31.5727 96.3053 32.1442C98.9247 32.7068 102.199 31.6263 103.756 29.0814C105.34 26.4829 105.128 23.4111 103.048 21.134C102.217 20.2321 102.429 19.7678 103.447 19.6964C105.004 19.5803 108.048 19.5178 109.597 19.6964C111.11 19.875 112.136 20.9019 112.136 22.4735C112.136 25.0184 112.154 25.4113 112.154 27.6526C112.154 30.3762 110.145 31.5638 109.057 32.1174C107.075 33.1175 105.137 33.7694 103.155 34.3677C100.818 35.0731 98.4645 35.7339 96.3142 36.9483C92.3674 39.1807 90.4472 42.4311 90.4472 47.1013C90.4472 51.7268 90.4472 56.1023 90.4472 60.6028C90.4472 66.1838 94.0045 69.6485 99.5618 69.5681C103.553 69.5146 108.588 67.4786 112.154 64.6926V69.3628H127.631C127.631 69.3628 127.631 31.6799 127.631 26.4025C127.622 23.8218 127.357 22.3127 126.888 20.9733ZM108.482 60.3528C106.907 60.3349 105.924 59.2009 105.924 57.8436C105.924 53.0841 105.933 49.2265 105.933 44.8064C105.933 40.1809 109.986 38.2521 112.136 38.0378C112.136 39.0647 112.154 57.2632 112.154 57.2632C112.145 59.3973 109.986 60.3707 108.482 60.3528Z" fill="#E21F26"/>
<path d="M116.181 2.87302C115.915 2.87302 104.349 2.87302 104.084 2.87302C101.916 5.78406 100.686 7.32888 98.1636 10.7132C101.066 10.7132 104.73 10.6864 107.331 10.7221C107.986 9.90061 109.491 8.10576 110.137 7.27531C110.783 8.10576 112.287 9.89168 112.942 10.7221C115.543 10.6864 119.207 10.7132 122.109 10.7132C119.579 7.32888 118.34 5.78406 116.181 2.87302Z" fill="#E21F26"/>
<path d="M298.907 12.3294C295.216 13.017 291.358 14.8476 288.341 17.5711V11.7669H272.863V69.3449H288.341V24.9648C288.341 24.9202 288.341 24.8666 288.341 24.8219C288.341 22.6878 290.323 21.3394 292.172 21.3394C293.809 21.3394 294.57 22.6967 294.562 23.9379V24.2951C294.562 24.4022 294.562 24.5005 294.562 24.5987C294.562 24.6969 294.562 24.7951 294.562 24.8934V69.3449H310.039V20.7322C310.048 14.4279 305.048 11.1954 298.907 12.3294Z" fill="#E21F26"/>
<path d="M265.66 20.9733C264.174 16.9193 260.554 14.1154 255.873 13.3028C252.369 12.6956 247.228 12.9277 244.475 13.0349C241.29 13.151 238.316 13.9279 235.812 15.4459C231.874 17.839 229.901 21.3573 230.228 26.0364C230.45 29.1171 232.432 31.5727 235.078 32.1442C237.697 32.7068 240.971 31.6263 242.529 29.0814C244.113 26.4829 243.9 23.4111 241.821 21.134C240.989 20.2321 241.201 19.7678 242.219 19.6964C243.776 19.5803 246.82 19.5178 248.369 19.6964C249.882 19.875 250.909 20.9019 250.909 22.4735C250.909 25.0184 250.926 25.4113 250.926 27.6526C250.926 30.3762 248.918 31.5638 247.829 32.1174C245.847 33.1175 243.909 33.7694 241.927 34.3677C239.591 35.0731 237.237 35.7339 235.086 36.9483C231.14 39.1807 229.219 42.4311 229.219 47.1013C229.219 51.7268 229.219 56.1023 229.219 60.6028C229.219 66.1838 232.777 69.6485 238.334 69.5681C242.325 69.5146 247.36 67.4786 250.926 64.6926V69.3628H266.404C266.404 69.3628 266.404 31.6799 266.404 26.4025C266.395 23.8218 266.12 22.3127 265.66 20.9733ZM247.245 60.3528C245.67 60.3349 244.688 59.2009 244.688 57.8436C244.688 53.0841 244.697 49.2265 244.697 44.8064C244.697 40.1809 248.75 38.2521 250.9 38.0378C250.9 39.0647 250.918 57.2632 250.918 57.2632C250.909 59.3973 248.758 60.3707 247.245 60.3528Z" fill="#E21F26"/>
<path d="M254.944 2.87302C254.678 2.87302 243.113 2.87302 242.847 2.87302C240.679 5.78406 239.449 7.32888 236.927 10.7132C239.83 10.7132 243.493 10.6864 246.095 10.7221C246.75 9.90061 248.254 8.10576 248.9 7.27531C249.546 8.10576 251.05 9.89168 251.705 10.7221C254.307 10.6864 257.97 10.7132 260.873 10.7132C258.342 7.32888 257.112 5.78406 254.944 2.87302Z" fill="#E21F26"/>
</svg>
